{
	"asset":{
		"generator":"Khronos glTF Blender I/O v4.1.63",
		"version":"2.0"
	},
	"extensionsUsed":[
		"KHR_texture_transform"
	],
	"extensionsRequired":[
		"KHR_texture_transform"
	],
	"scene":0,
	"scenes":[
		{
			"name":"Scene",
			"nodes":[
				0,
				1,
				2
			]
		}
	],
	"nodes":[
		{
			"name":"Empty",
			"rotation":[
				0.5,
				0.5,
				-0.5,
				0.5
			],
			"scale":[
				0.3802903890609741,
				0.3802903890609741,
				0.3802903890609741
			],
			"translation":[
				0,
				0,
				-0.7188305854797363
			]
		},
		{
			"mesh":0,
			"name":"Plane"
		},
		{
			"mesh":1,
			"name":"Plane.001"
		}
	],
	"materials":[
		{
			"doubleSided":true,
			"name":"Cement",
			"normalTexture":{
				"extensions":{
					"KHR_texture_transform":{
						"offset":[
							0,
							-0.9900000095367432
						],
						"scale":[
							1.7999999523162842,
							1.9900000095367432
						]
					}
				},
				"index":0,
				"scale":4,
				"texCoord":1
			},
			"pbrMetallicRoughness":{
				"baseColorTexture":{
					"extensions":{
						"KHR_texture_transform":{
							"offset":[
								0,
								-0.9900000095367432
							],
							"scale":[
								1.7999999523162842,
								1.9900000095367432
							]
						}
					},
					"index":1,
					"texCoord":1
				},
				"metallicFactor":0,
				"metallicRoughnessTexture":{
					"extensions":{
						"KHR_texture_transform":{
							"offset":[
								0,
								-0.9900000095367432
							],
							"scale":[
								1.7999999523162842,
								1.9900000095367432
							]
						}
					},
					"index":2,
					"texCoord":1
				}
			}
		},
		{
			"doubleSided":true,
			"name":"Polystyrene Foam",
			"pbrMetallicRoughness":{}
		}
	],
	"meshes":[
		{
			"name":"Plane",
			"primitives":[
				{
					"attributes":{
						"POSITION":0,
						"NORMAL":1,
						"TEXCOORD_0":2,
						"TEXCOORD_1":3
					},
					"indices":4,
					"material":0
				}
			]
		},
		{
			"name":"Plane.001",
			"primitives":[
				{
					"attributes":{
						"POSITION":5,
						"NORMAL":6,
						"TEXCOORD_0":7,
						"TEXCOORD_1":8
					},
					"indices":9,
					"material":1
				}
			]
		}
	],
	"textures":[
		{
			"sampler":0,
			"source":0
		},
		{
			"sampler":0,
			"source":1
		},
		{
			"sampler":0,
			"source":2
		}
	],
	"images":[
		{
			"mimeType":"image/jpeg",
			"name":"Cement_Normal",
			"uri":"Cement_Normal.jpg"
		},
		{
			"mimeType":"image/jpeg",
			"name":"Cement_BaseColor",
			"uri":"Cement_BaseColor.jpg"
		},
		{
			"mimeType":"image/png",
			"name":"Cement_Roughness",
			"uri":"Cement_Roughness.png"
		}
	],
	"accessors":[
		{
			"bufferView":0,
			"componentType":5126,
			"count":5408,
			"max":[
				7.3960795402526855,
				1.250615119934082,
				-0.4397946298122406
			],
			"min":[
				-1.6723658902151328e-08,
				-0.15046370029449463,
				-1.4572420120239258
			],
			"type":"VEC3"
		},
		{
			"bufferView":1,
			"componentType":5126,
			"count":5408,
			"type":"VEC3"
		},
		{
			"bufferView":2,
			"componentType":5126,
			"count":5408,
			"type":"VEC2"
		},
		{
			"bufferView":3,
			"componentType":5126,
			"count":5408,
			"type":"VEC2"
		},
		{
			"bufferView":4,
			"componentType":5123,
			"count":9018,
			"type":"SCALAR"
		},
		{
			"bufferView":5,
			"componentType":5126,
			"count":4393,
			"max":[
				9.00366497039795,
				1.250615119934082,
				-0.43970760703086853
			],
			"min":[
				6.703882694244385,
				-0.15046361088752747,
				-1.4572420120239258
			],
			"type":"VEC3"
		},
		{
			"bufferView":6,
			"componentType":5126,
			"count":4393,
			"type":"VEC3"
		},
		{
			"bufferView":7,
			"componentType":5126,
			"count":4393,
			"type":"VEC2"
		},
		{
			"bufferView":8,
			"componentType":5126,
			"count":4393,
			"type":"VEC2"
		},
		{
			"bufferView":9,
			"componentType":5123,
			"count":6738,
			"type":"SCALAR"
		}
	],
	"bufferViews":[
		{
			"buffer":0,
			"byteLength":64896,
			"byteOffset":0,
			"target":34962
		},
		{
			"buffer":0,
			"byteLength":64896,
			"byteOffset":64896,
			"target":34962
		},
		{
			"buffer":0,
			"byteLength":43264,
			"byteOffset":129792,
			"target":34962
		},
		{
			"buffer":0,
			"byteLength":43264,
			"byteOffset":173056,
			"target":34962
		},
		{
			"buffer":0,
			"byteLength":18036,
			"byteOffset":216320,
			"target":34963
		},
		{
			"buffer":0,
			"byteLength":52716,
			"byteOffset":234356,
			"target":34962
		},
		{
			"buffer":0,
			"byteLength":52716,
			"byteOffset":287072,
			"target":34962
		},
		{
			"buffer":0,
			"byteLength":35144,
			"byteOffset":339788,
			"target":34962
		},
		{
			"buffer":0,
			"byteLength":35144,
			"byteOffset":374932,
			"target":34962
		},
		{
			"buffer":0,
			"byteLength":13476,
			"byteOffset":410076,
			"target":34963
		}
	],
	"samplers":[
		{
			"magFilter":9729,
			"minFilter":9987
		}
	],
	"buffers":[
		{
			"byteLength":423552,
			"uri":"Moldura%20ISO%20201%20Teste%203.bin"
		}
	]
}
