{
	"asset":{
		"generator":"Khronos glTF Blender I/O v4.1.63",
		"version":"2.0"
	},
	"extensionsUsed":[
		"KHR_texture_transform"
	],
	"extensionsRequired":[
		"KHR_texture_transform"
	],
	"scene":0,
	"scenes":[
		{
			"name":"Scene",
			"nodes":[
				0,
				1,
				2
			]
		}
	],
	"nodes":[
		{
			"mesh":0,
			"name":"Cube",
			"rotation":[
				-0.7071068286895752,
				0,
				0,
				0.7071068286895752
			],
			"scale":[
				0.25744545459747314,
				0.25744545459747314,
				0.25744545459747314
			],
			"translation":[
				0,
				0.35311317443847656,
				0.0009266138076782227
			]
		},
		{
			"name":"Empty",
			"rotation":[
				0.5,
				0.5,
				-0.5,
				0.5
			],
			"scale":[
				0.057349931448698044,
				0.057349931448698044,
				0.057349931448698044
			],
			"translation":[
				-0.38755613565444946,
				0,
				0
			]
		},
		{
			"mesh":1,
			"name":"Cube.001",
			"rotation":[
				-0.7071068286895752,
				0,
				0,
				0.7071068286895752
			],
			"scale":[
				0.25744545459747314,
				0.25744545459747314,
				0.25744545459747314
			],
			"translation":[
				0,
				0.35311317443847656,
				0.0009266138076782227
			]
		}
	],
	"animations":[
		{
			"channels":[
				{
					"sampler":0,
					"target":{
						"node":0,
						"path":"rotation"
					}
				}
			],
			"name":"CubeAction.002",
			"samplers":[
				{
					"input":10,
					"interpolation":"LINEAR",
					"output":11
				}
			]
		},
		{
			"channels":[
				{
					"sampler":0,
					"target":{
						"node":2,
						"path":"rotation"
					}
				}
			],
			"name":"CubeAction.001",
			"samplers":[
				{
					"input":10,
					"interpolation":"LINEAR",
					"output":12
				}
			]
		}
	],
	"materials":[
		{
			"doubleSided":true,
			"name":"Cement",
			"normalTexture":{
				"extensions":{
					"KHR_texture_transform":{
						"offset":[
							0,
							-17
						],
						"scale":[
							18,
							18
						]
					}
				},
				"index":0,
				"scale":1.2000000476837158,
				"texCoord":1
			},
			"pbrMetallicRoughness":{
				"baseColorTexture":{
					"extensions":{
						"KHR_texture_transform":{
							"offset":[
								0,
								-17
							],
							"scale":[
								18,
								18
							]
						}
					},
					"index":1,
					"texCoord":1
				},
				"metallicFactor":0,
				"metallicRoughnessTexture":{
					"extensions":{
						"KHR_texture_transform":{
							"offset":[
								0,
								-17
							],
							"scale":[
								18,
								18
							]
						}
					},
					"index":2,
					"texCoord":1
				}
			}
		},
		{
			"alphaMode":"BLEND",
			"doubleSided":true,
			"name":"Polystyrene 01",
			"normalTexture":{
				"extensions":{
					"KHR_texture_transform":{
						"offset":[
							0,
							-39
						],
						"scale":[
							40,
							40
						]
					}
				},
				"index":3,
				"texCoord":1
			},
			"pbrMetallicRoughness":{
				"baseColorTexture":{
					"extensions":{
						"KHR_texture_transform":{
							"offset":[
								0,
								-39
							],
							"scale":[
								40,
								40
							]
						}
					},
					"index":4,
					"texCoord":1
				},
				"metallicRoughnessTexture":{
					"extensions":{
						"KHR_texture_transform":{
							"offset":[
								0,
								-39
							],
							"scale":[
								40,
								40
							]
						}
					},
					"index":5,
					"texCoord":1
				}
			}
		}
	],
	"meshes":[
		{
			"name":"Cube",
			"primitives":[
				{
					"attributes":{
						"POSITION":0,
						"NORMAL":1,
						"TEXCOORD_0":2,
						"TEXCOORD_1":3
					},
					"indices":4,
					"material":0
				}
			]
		},
		{
			"name":"Cube.001",
			"primitives":[
				{
					"attributes":{
						"POSITION":5,
						"NORMAL":6,
						"TEXCOORD_0":7,
						"TEXCOORD_1":8
					},
					"indices":9,
					"material":1
				}
			]
		}
	],
	"textures":[
		{
			"sampler":0,
			"source":0
		},
		{
			"sampler":0,
			"source":1
		},
		{
			"sampler":0,
			"source":2
		},
		{
			"sampler":0,
			"source":3
		},
		{
			"sampler":0,
			"source":4
		},
		{
			"sampler":0,
			"source":5
		}
	],
	"images":[
		{
			"mimeType":"image/jpeg",
			"name":"Cement_Normal",
			"uri":"Cement_Normal.jpg"
		},
		{
			"mimeType":"image/jpeg",
			"name":"Cement_BaseColor",
			"uri":"Cement_BaseColor.jpg"
		},
		{
			"mimeType":"image/png",
			"name":"Cement_Roughness",
			"uri":"Cement_Roughness.png"
		},
		{
			"mimeType":"image/jpeg",
			"name":"Tech_Polystyrene_01_normal",
			"uri":"Tech_Polystyrene_01_normal.jpg"
		},
		{
			"mimeType":"image/jpeg",
			"name":"Tech_Polystyrene_01_basecolor",
			"uri":"Tech_Polystyrene_01_basecolor.jpg"
		},
		{
			"mimeType":"image/png",
			"name":"Tech_Polystyrene_01_metallic-Tech_Polystyrene_01_roughness",
			"uri":"Tech_Polystyrene_01_metallic-Tech_Polystyrene_01_roughness.png"
		}
	],
	"accessors":[
		{
			"bufferView":0,
			"componentType":5126,
			"count":123,
			"max":[
				0.711628794670105,
				0.15572471916675568,
				0.11785051226615906
			],
			"min":[
				-0.9999999403953552,
				-0.14346635341644287,
				-0.08078837394714355
			],
			"type":"VEC3"
		},
		{
			"bufferView":1,
			"componentType":5126,
			"count":123,
			"type":"VEC3"
		},
		{
			"bufferView":2,
			"componentType":5126,
			"count":123,
			"type":"VEC2"
		},
		{
			"bufferView":3,
			"componentType":5126,
			"count":123,
			"type":"VEC2"
		},
		{
			"bufferView":4,
			"componentType":5123,
			"count":243,
			"type":"SCALAR"
		},
		{
			"bufferView":5,
			"componentType":5126,
			"count":123,
			"max":[
				0.9999999403953552,
				0.15572471916675568,
				0.11785051226615906
			],
			"min":[
				0.5761749744415283,
				-0.14346635341644287,
				-0.08078837394714355
			],
			"type":"VEC3"
		},
		{
			"bufferView":6,
			"componentType":5126,
			"count":123,
			"type":"VEC3"
		},
		{
			"bufferView":7,
			"componentType":5126,
			"count":123,
			"type":"VEC2"
		},
		{
			"bufferView":8,
			"componentType":5126,
			"count":123,
			"type":"VEC2"
		},
		{
			"bufferView":9,
			"componentType":5123,
			"count":243,
			"type":"SCALAR"
		},
		{
			"bufferView":10,
			"componentType":5126,
			"count":21,
			"max":[
				1.6666666666666667
			],
			"min":[
				0
			],
			"type":"SCALAR"
		},
		{
			"bufferView":11,
			"componentType":5126,
			"count":21,
			"type":"VEC4"
		},
		{
			"bufferView":12,
			"componentType":5126,
			"count":21,
			"type":"VEC4"
		}
	],
	"bufferViews":[
		{
			"buffer":0,
			"byteLength":1476,
			"byteOffset":0,
			"target":34962
		},
		{
			"buffer":0,
			"byteLength":1476,
			"byteOffset":1476,
			"target":34962
		},
		{
			"buffer":0,
			"byteLength":984,
			"byteOffset":2952,
			"target":34962
		},
		{
			"buffer":0,
			"byteLength":984,
			"byteOffset":3936,
			"target":34962
		},
		{
			"buffer":0,
			"byteLength":486,
			"byteOffset":4920,
			"target":34963
		},
		{
			"buffer":0,
			"byteLength":1476,
			"byteOffset":5408,
			"target":34962
		},
		{
			"buffer":0,
			"byteLength":1476,
			"byteOffset":6884,
			"target":34962
		},
		{
			"buffer":0,
			"byteLength":984,
			"byteOffset":8360,
			"target":34962
		},
		{
			"buffer":0,
			"byteLength":984,
			"byteOffset":9344,
			"target":34962
		},
		{
			"buffer":0,
			"byteLength":486,
			"byteOffset":10328,
			"target":34963
		},
		{
			"buffer":0,
			"byteLength":84,
			"byteOffset":10816
		},
		{
			"buffer":0,
			"byteLength":336,
			"byteOffset":10900
		},
		{
			"buffer":0,
			"byteLength":336,
			"byteOffset":11236
		}
	],
	"samplers":[
		{
			"magFilter":9729,
			"minFilter":9987
		}
	],
	"buffers":[
		{
			"byteLength":11572,
			"uri":"Moldura1.bin"
		}
	]
}
