{
	"asset":{
		"generator":"Khronos glTF Blender I/O v4.1.63",
		"version":"2.0"
	},
	"scene":0,
	"scenes":[
		{
			"name":"Scene",
			"nodes":[
				0,
				1
			]
		}
	],
	"nodes":[
		{
			"mesh":0,
			"name":"Cube",
			"rotation":[
				-0.7071068286895752,
				0,
				0,
				0.7071068286895752
			],
			"scale":[
				0.25744545459747314,
				0.25744545459747314,
				0.25744545459747314
			],
			"translation":[
				0,
				0.35311317443847656,
				0.0009266138076782227
			]
		},
		{
			"mesh":1,
			"name":"Cube.001",
			"rotation":[
				-0.7071068286895752,
				0,
				0,
				0.7071068286895752
			],
			"scale":[
				0.25744545459747314,
				0.25744545459747314,
				0.25744545459747314
			],
			"translation":[
				0,
				0.35311317443847656,
				0.0009266138076782227
			]
		}
	],
	"materials":[
		{
			"doubleSided":true,
			"name":"Cement",
			"pbrMetallicRoughness":{
				"metallicFactor":0
			}
		},
		{
			"alphaMode":"BLEND",
			"doubleSided":true,
			"name":"Polystyrene 01",
			"pbrMetallicRoughness":{}
		}
	],
	"meshes":[
		{
			"name":"Cube",
			"primitives":[
				{
					"attributes":{
						"POSITION":0,
						"NORMAL":1,
						"TEXCOORD_0":2,
						"TEXCOORD_1":3
					},
					"indices":4,
					"material":0
				}
			]
		},
		{
			"name":"Cube.001",
			"primitives":[
				{
					"attributes":{
						"POSITION":5,
						"NORMAL":6,
						"TEXCOORD_0":7,
						"TEXCOORD_1":8
					},
					"indices":9,
					"material":1
				}
			]
		}
	],
	"accessors":[
		{
			"bufferView":0,
			"componentType":5126,
			"count":192,
			"max":[
				0.711628794670105,
				0.15572471916675568,
				0.11785051226615906
			],
			"min":[
				-0.9999999403953552,
				-0.14346635341644287,
				-0.08078837394714355
			],
			"type":"VEC3"
		},
		{
			"bufferView":1,
			"componentType":5126,
			"count":192,
			"type":"VEC3"
		},
		{
			"bufferView":2,
			"componentType":5126,
			"count":192,
			"type":"VEC2"
		},
		{
			"bufferView":3,
			"componentType":5126,
			"count":192,
			"type":"VEC2"
		},
		{
			"bufferView":4,
			"componentType":5123,
			"count":318,
			"type":"SCALAR"
		},
		{
			"bufferView":5,
			"componentType":5126,
			"count":192,
			"max":[
				0.9999999403953552,
				0.15572471916675568,
				0.11785051226615906
			],
			"min":[
				0.5761749744415283,
				-0.14346635341644287,
				-0.08078837394714355
			],
			"type":"VEC3"
		},
		{
			"bufferView":6,
			"componentType":5126,
			"count":192,
			"type":"VEC3"
		},
		{
			"bufferView":7,
			"componentType":5126,
			"count":192,
			"type":"VEC2"
		},
		{
			"bufferView":8,
			"componentType":5126,
			"count":192,
			"type":"VEC2"
		},
		{
			"bufferView":9,
			"componentType":5123,
			"count":318,
			"type":"SCALAR"
		}
	],
	"bufferViews":[
		{
			"buffer":0,
			"byteLength":2304,
			"byteOffset":0,
			"target":34962
		},
		{
			"buffer":0,
			"byteLength":2304,
			"byteOffset":2304,
			"target":34962
		},
		{
			"buffer":0,
			"byteLength":1536,
			"byteOffset":4608,
			"target":34962
		},
		{
			"buffer":0,
			"byteLength":1536,
			"byteOffset":6144,
			"target":34962
		},
		{
			"buffer":0,
			"byteLength":636,
			"byteOffset":7680,
			"target":34963
		},
		{
			"buffer":0,
			"byteLength":2304,
			"byteOffset":8316,
			"target":34962
		},
		{
			"buffer":0,
			"byteLength":2304,
			"byteOffset":10620,
			"target":34962
		},
		{
			"buffer":0,
			"byteLength":1536,
			"byteOffset":12924,
			"target":34962
		},
		{
			"buffer":0,
			"byteLength":1536,
			"byteOffset":14460,
			"target":34962
		},
		{
			"buffer":0,
			"byteLength":636,
			"byteOffset":15996,
			"target":34963
		}
	],
	"buffers":[
		{
			"byteLength":16632,
			"uri":"Moldura2.bin"
		}
	]
}
